<?xml version="1.0" encoding="UTF-8"?>
<svg width="3600pt" height="3600pt" version="1.1" viewBox="0 0 3600 3600" xmlns="http://www.w3.org/2000/svg">
 <path d="m999.97 0v199.97h-399.93v-199.97zm-399.93 199.97h-199.97v199.97h199.97zm-199.97 199.97h-200.11v199.97h199.97v-199.97zm-400.07 200.11v399.93h199.97v-399.93zm800.03 399.93h199.97v-199.97h-199.97zm1800 199.97v399.93h199.97v-399.93zm-2400-199.97v199.97h400.07v800.03h199.97v-999.97zm2800 1400.1v-800.03h-199.97v999.97h600.05v-199.97zm-2199.9-399.93v399.93h199.97v-399.93zm399.93-1400.1v-400.07h-199.97v600.05h199.97v1600h-199.97v199.97h199.97v199.97h399.93l0.14062-2e3h399.93v-199.97zm1400.1 2199.9h199.97v-199.97h-199.97zm800.03-199.97v399.93h199.97v-399.93zm-999.97-1400.1h199.97v-199.97h-199.97v-199.97h-399.93l-0.14062 2e3h-399.93v199.97h800.03v399.93h199.97v-600.05h-199.97zm800.03 2e3h199.97v-199.97h-199.97zm-199.97 199.97h199.97v-199.97h-199.97zm-399.93 0v199.97h399.93v-199.97z"/>
</svg>
