<?xml version="1.0" encoding="UTF-8"?>
<svg width="3600pt" height="3600pt" version="1.1" viewBox="0 0 3600 3600" xmlns="http://www.w3.org/2000/svg">
 <path d="m1237.5 787.5h225v225h-225z"/>
 <path d="m1012.5 1012.5h225v225h-225z"/>
 <path d="m787.5 1237.5h225v225h-225z"/>
 <path d="m562.5 1687.5v1350h450v-2.8125s1.125 2.8125 2.8125 2.8125h219.38s2.8125-1.125 2.8125-2.8125c0 1.6875 1.125 2.8125 2.8125 2.8125h219.38s2.8125-1.125 2.8125-2.8125v-219.38s-1.125-2.8125-2.8125-2.8125h-219.38s-2.8125 1.125-2.8125 2.8125c0-1.6875-1.125-2.8125-2.8125-2.8125h-219.38s-2.8125 1.125-2.8125 2.8125v-2.8125h-225v-1350h-225z"/>
 <path d="m1912.5 562.5h-450v225h675v-225z"/>
 <path d="m2137.5 787.5h225v225h-225z"/>
 <path d="m2362.5 1012.5h225v225h-225z"/>
 <path d="m2587.5 1237.5h225v225h-225z"/>
 <path d="m2812.5 1462.5v1350h-225v2.8125s-1.125-2.8125-2.8125-2.8125h-219.38s-2.8125 1.125-2.8125 2.8125c0-1.6875-1.125-2.8125-2.8125-2.8125h-219.38s-2.8125 1.125-2.8125 2.8125v219.38s1.125 2.8125 2.8125 2.8125h219.38s2.8125-1.125 2.8125-2.8125c0 1.6875 1.125 2.8125 2.8125 2.8125h219.38s2.8125-1.125 2.8125-2.8125v2.8125h450v-1575z"/>
 <path d="m1690.3 2812.5h219.38c1.5469 0 2.8125 1.5469 2.8125 2.8125v219.38c0 1.5469-1.2656 2.8125-2.8125 2.8125h-219.38c-1.5469 0-2.8125-1.5469-2.8125-2.8125v-219.38c0-1.5469 1.2656-2.8125 2.8125-2.8125z"/>
 <path d="m1912.5 2812.5h225v-675h-450v2.8125s-1.125-2.8125-2.8125-2.8125h-219.38s-2.8125 1.125-2.8125 2.8125v219.38s1.125 2.8125 2.8125 2.8125h-2.8125v450h225v-450h-2.8125s2.8125-1.125 2.8125-2.8125v2.8125h225z"/>
</svg>
