<?xml version="1.0" encoding="UTF-8" standalone="no"?>
<!-- 2025-03-01 20:38:56 Generated by QCAD 3.31.2 SVG Exporter -->

<svg
   width="358mm"
   height="385mm"
   viewBox="0 -385 358 385"
   version="1.1"
   style="stroke-linecap:round;stroke-linejoin:round;fill:none"
   id="svg30"
   sodipodi:docname="faceplate.svg"
   inkscape:version="1.2.2 (b0a8486541, 2022-12-01)"
   xmlns:inkscape="http://www.inkscape.org/namespaces/inkscape"
   xmlns:sodipodi="http://sodipodi.sourceforge.net/DTD/sodipodi-0.dtd"
   xmlns:xlink="http://www.w3.org/1999/xlink"
   xmlns="http://www.w3.org/2000/svg"
   xmlns:svg="http://www.w3.org/2000/svg">
  <defs
     id="defs34">
    <linearGradient
       inkscape:collect="always"
       id="linearGradient5380">
      <stop
         style="stop-color:#0098db;stop-opacity:1;"
         offset="0"
         id="stop5378" />
      <stop
         style="stop-color:#1e579c;stop-opacity:1;"
         offset="1"
         id="stop5376" />
    </linearGradient>
    <linearGradient
       inkscape:collect="always"
       id="linearGradient1007">
      <stop
         style="stop-color:#1e579c;stop-opacity:1;"
         offset="0"
         id="stop1005" />
      <stop
         style="stop-color:#0098db;stop-opacity:1;"
         offset="1"
         id="stop1003" />
    </linearGradient>
    <linearGradient
       inkscape:collect="always"
       id="linearGradient11249">
      <stop
         style="stop-color:#ff0546;stop-opacity:1;"
         offset="0"
         id="stop11245" />
      <stop
         style="stop-color:#660f31;stop-opacity:1;"
         offset="1"
         id="stop11247" />
    </linearGradient>
    <linearGradient
       inkscape:collect="always"
       id="linearGradient6131">
      <stop
         style="stop-color:#ff0546;stop-opacity:1;"
         offset="0"
         id="stop6127" />
      <stop
         style="stop-color:#660f31;stop-opacity:1;"
         offset="1"
         id="stop6129" />
    </linearGradient>
    <linearGradient
       inkscape:collect="always"
       xlink:href="#linearGradient6131"
       id="linearGradient6133"
       x1="22.933067"
       y1="359.84546"
       x2="334.57285"
       y2="124.46048"
       gradientUnits="userSpaceOnUse" />
    <linearGradient
       inkscape:collect="always"
       xlink:href="#linearGradient11249"
       id="linearGradient11253"
       x1="0.044814255"
       y1="385.07913"
       x2="359.01169"
       y2="-0.48902377"
       gradientUnits="userSpaceOnUse"
       gradientTransform="translate(0.31647127,-1.1630514)" />
    <linearGradient
       inkscape:collect="always"
       xlink:href="#linearGradient6131"
       id="linearGradient12717"
       x1="110.99113"
       y1="90.85437"
       x2="185.20023"
       y2="21.893587"
       gradientUnits="userSpaceOnUse" />
    <linearGradient
       inkscape:collect="always"
       xlink:href="#linearGradient6131"
       id="linearGradient13268"
       x1="41.477791"
       y1="98.853149"
       x2="66.539383"
       y2="74.491791"
       gradientUnits="userSpaceOnUse" />
    <linearGradient
       inkscape:collect="always"
       xlink:href="#linearGradient6131"
       id="linearGradient14726"
       x1="31.108644"
       y1="109.93365"
       x2="77.096504"
       y2="64.339302"
       gradientUnits="userSpaceOnUse" />
    <radialGradient
       inkscape:collect="always"
       xlink:href="#linearGradient1007"
       id="radialGradient1011"
       cx="158.70995"
       cy="-82.388115"
       fx="158.70995"
       fy="-82.388115"
       r="21.133593"
       gradientUnits="userSpaceOnUse" />
    <linearGradient
       inkscape:collect="always"
       xlink:href="#linearGradient5380"
       id="linearGradient5374"
       x1="28.09322"
       y1="-44.11417"
       x2="38.795498"
       y2="-28.316929"
       gradientUnits="userSpaceOnUse"
       spreadMethod="pad"
       gradientTransform="matrix(0.64152366,0,0,0.64152366,11.475271,-17.780423)" />
  </defs>
  <sodipodi:namedview
     id="namedview32"
     pagecolor="#ffffff"
     bordercolor="#000000"
     borderopacity="0.25"
     inkscape:showpageshadow="2"
     inkscape:pageopacity="0.0"
     inkscape:pagecheckerboard="true"
     inkscape:deskcolor="#d1d1d1"
     inkscape:document-units="mm"
     showgrid="false"
     inkscape:zoom="0.72878599"
     inkscape:cx="590.02232"
     inkscape:cy="1097.0299"
     inkscape:window-width="1920"
     inkscape:window-height="1020"
     inkscape:window-x="0"
     inkscape:window-y="1080"
     inkscape:window-maximized="1"
     inkscape:current-layer="g28"
     showguides="false" />
  <g
     transform="scale(1,-1)"
     id="g28"
     inkscape:label="g28">
    <!-- Polyline -->
    <path
       id="path2"
       style="fill:#09010d;fill-opacity:1;stroke:url(#linearGradient11253);stroke-width:1.3;stroke-dasharray:none"
       inkscape:label="Background"
       d="m 1.8613932,-0.55367637 c -1.03963737,0.33094962 -1.08489534,1.5282673 -1.01562505,2.43554687 -1e-8,126.6367195 0,253.2734395 0,379.9101595 -0.02248,1.05281 1.05551105,1.681 2.01562505,1.51562 117.8033868,0 235.6067668,0 353.4101568,0 1.05281,0.0225 1.681,-1.05551 1.51562,-2.01562 -0.003,-126.8425 0.007,-253.68532 -0.005,-380.52761287 -0.0136,-1.00454682 -1.08483,-1.57174463 -1.99305,-1.39817162 -117.80925,-1e-8 -235.61849,0 -353.4277368,0 -0.1666667,0.0266927 -0.3333334,0.0533854 -0.5,0.0800781 z"
       sodipodi:insensitive="true" />
    <!-- Polyline -->
    <path
       d="m 334,127 v 230 a 2,2 0 0 1 -2,2 H 26 a 2,2 0 0 1 -2,-2 V 127 a 2,2 0 0 1 2,-2 h 306 a 2,2 0 0 1 2,2"
       style="fill:#ffffff;fill-opacity:1;stroke:url(#linearGradient6133);stroke-width:1.3;stroke-linejoin:bevel;stroke-dasharray:none;paint-order:normal"
       id="path4"
       inkscape:label="Display"
       sodipodi:insensitive="true" />
    <!-- Line -->
    <!-- Line -->
    <!-- Polyline -->
    <g
       id="g16630"
       inkscape:label="RFID">
      <path
         d="m 181,90 h -66 a 3,3 0 0 1 -3,-3 V 26 a 3,3 0 0 1 3,-3 h 66 a 3,3 0 0 1 3,3 v 61 a 3,3 0 0 1 -3,3"
         style="fill:#17001d;fill-opacity:1;stroke:url(#linearGradient12717);stroke-width:2;stroke-linejoin:miter;stroke-dasharray:none"
         id="path10"
         inkscape:label="Box" />
      <text
         xml:space="preserve"
         style="font-style:normal;font-variant:normal;font-weight:normal;font-stretch:normal;font-size:50.8px;font-family:'HeavyData Nerd Font';-inkscape-font-specification:'HeavyData Nerd Font';white-space:pre;inline-size:0;fill:url(#radialGradient1011);fill-opacity:1;stroke:none;stroke-width:1;stroke-linecap:round;stroke-linejoin:miter;stroke-dasharray:none;stroke-opacity:1;paint-order:normal"
         x="132.91307"
         y="-64.776787"
         id="text16690"
         transform="matrix(1,0,0,-1,-10.709945,-25.888127)"
         inkscape:label="Icon"><tspan
           id="tspan16688"
           style="font-style:normal;font-variant:normal;font-weight:normal;font-stretch:normal;font-size:50.8px;font-family:'HeavyData Nerd Font';-inkscape-font-specification:'HeavyData Nerd Font';fill:url(#radialGradient1011);fill-opacity:1;stroke:none;stroke-width:1"
           x="132.91307"
           y="-64.776787">󰎘</tspan></text>
    </g>
    <g
       id="g5446"
       inkscape:label="circuit"
       style="stroke-linecap:round;stroke-linejoin:round;fill:none"
       transform="translate(0)">
      <rect
         style="fill:#0098db;fill-opacity:1;stroke:none;stroke-width:2;stroke-linecap:round;stroke-dasharray:none;stroke-opacity:0"
         id="rect5114"
         width="11.221911"
         height="1"
         x="235.8735"
         y="-86"
         transform="scale(1,-1)" />
      <rect
         style="fill:#0098db;fill-opacity:1;stroke:none;stroke-width:2.15356;stroke-linecap:round;stroke-linejoin:round;stroke-dasharray:none;stroke-opacity:0"
         id="rect5114-3"
         width="15.964118"
         height="1"
         x="248.13525"
         y="-86"
         transform="scale(1,-1)" />
      <rect
         style="fill:#0098db;fill-opacity:1;stroke:none;stroke-width:1.36021;stroke-dasharray:none;stroke-opacity:0"
         id="rect5116"
         width="1.000388"
         height="85.984634"
         x="246.17781"
         y="-86"
         transform="scale(1,-1)" />
      <rect
         style="fill:#0098db;fill-opacity:1;stroke:none;stroke-width:1.35993;stroke-linecap:round;stroke-linejoin:round;stroke-dasharray:none;stroke-opacity:0"
         id="rect5116-6"
         width="1"
         height="85.982689"
         x="248.11047"
         y="-86"
         transform="scale(1,-1)" />
      <rect
         style="fill:#1d599e;fill-opacity:1;stroke:none;stroke-width:1.14877;stroke-linecap:round;stroke-linejoin:round;stroke-dasharray:none;stroke-opacity:0"
         id="rect5116-6-1"
         width="1"
         height="61.354568"
         x="251.94749"
         y="-61.381821"
         transform="scale(1,-1)" />
      <rect
         style="fill:#1d599e;fill-opacity:1;stroke:none;stroke-width:1.12601;stroke-linecap:round;stroke-linejoin:round;stroke-dasharray:none;stroke-opacity:0"
         id="rect5116-6-1-2"
         width="1"
         height="58.947552"
         x="253.7997"
         y="-58.98008"
         transform="scale(1,-1)" />
      <rect
         style="fill:#0098db;fill-opacity:1;stroke:none;stroke-width:2;stroke-linecap:round;stroke-dasharray:none;stroke-opacity:0"
         id="rect5222"
         width="11.221911"
         height="1"
         x="234"
         y="-35"
         transform="scale(1,-1)" />
      <rect
         style="fill:#1d599e;fill-opacity:1;stroke:none;stroke-width:5.03991;stroke-linecap:round;stroke-linejoin:round;stroke-dasharray:none;stroke-opacity:0"
         id="rect5222-2"
         width="71.26091"
         height="1"
         x="254.18126"
         y="-58.981941"
         transform="scale(1,-1)"
         inkscape:label="rect5222-2" />
      <rect
         style="fill:#1d599e;fill-opacity:1;stroke:none;stroke-width:5.11977;stroke-linecap:round;stroke-linejoin:round;stroke-dasharray:none;stroke-opacity:0"
         id="rect5222-2-9"
         width="73.537018"
         height="1"
         x="251.9527"
         y="-61.413143"
         transform="scale(1,-1)"
         inkscape:label="rect5222-2" />
      <rect
         style="fill:#0098db;fill-opacity:1;stroke:none;stroke-width:2.15356;stroke-linecap:round;stroke-linejoin:round;stroke-dasharray:none;stroke-opacity:0"
         id="rect5224"
         width="15.964118"
         height="1"
         x="250"
         y="-35"
         transform="scale(1,-1)" />
      <rect
         style="fill:#0098db;fill-opacity:1;stroke:none;stroke-width:0.86772;stroke-dasharray:none;stroke-opacity:0"
         id="rect5226"
         width="1.000388"
         height="34.992088"
         x="244.3"
         y="-35"
         transform="scale(1,-1)" />
      <rect
         style="fill:#0098db;fill-opacity:1;stroke:none;stroke-width:0.866219;stroke-linecap:round;stroke-linejoin:round;stroke-dasharray:none;stroke-opacity:0"
         id="rect5228"
         width="1"
         height="34.884125"
         x="250"
         y="-34.900375"
         transform="scale(1,-1)" />
      <rect
         style="fill:#1d599e;fill-opacity:1;stroke:none;stroke-width:0.545932;stroke-dasharray:none;stroke-opacity:0"
         id="rect5462"
         width="1.000388"
         height="13.851161"
         x="324.49512"
         y="-74.259193"
         transform="scale(1,-1)" />
      <rect
         style="fill:#1d599e;fill-opacity:1;stroke:none;stroke-width:0.545932;stroke-linecap:round;stroke-linejoin:round;stroke-dasharray:none;stroke-opacity:0"
         id="rect5462-6"
         width="1.000388"
         height="13.851161"
         x="324.45697"
         y="-58.970943"
         transform="scale(1,-1)" />
    </g>
    <!-- Circle -->
    <!-- Circle -->
    <!-- Circle -->
    <!-- Circle -->
    <!-- Circle -->
    <!-- Circle -->
    <!-- Circle -->
    <!-- Circle -->
    <g
       id="g5984"
       inkscape:label="button_holes"
       style="fill:#ffffff;fill-opacity:1">
      <path
         id="path12774"
         style="fill:#17001d;fill-opacity:1;stroke:url(#linearGradient14726);stroke-width:1;stroke-linecap:round;stroke-linejoin:round;stroke-dasharray:none"
         inkscape:label="Scroll Wheel"
         sodipodi:type="inkscape:offset"
         inkscape:radius="10.706194"
         inkscape:original="M 54 75.75 A 11.25 11.25 0 0 0 42.75 87 A 11.25 11.25 0 0 0 54 98.25 A 11.25 11.25 0 0 0 65.25 87 A 11.25 11.25 0 0 0 54 75.75 z "
         d="M 54,65.042969 C 42.503764,65.042969 32.042969,75.503764 32.042969,87 32.042969,98.496236 42.503764,108.95703 54,108.95703 65.496236,108.95703 75.957031,98.496236 75.957031,87 75.957031,75.503764 65.496236,65.042969 54,65.042969 Z" />
      <path
         id="circle12"
         style="fill:#ffffff;fill-opacity:1;stroke:url(#linearGradient13268);stroke-width:1;stroke-linecap:round;stroke-linejoin:round;stroke-dasharray:none;stroke-opacity:1"
         inkscape:label="Scroll Wheel"
         d="m 53.962891,75.222656 c -2.674595,0.04041 -5.335484,0.956026 -7.401708,2.668166 -2.58987,2.091985 -4.212647,5.335627 -4.309411,8.667412 -0.130458,2.866657 0.867012,5.754683 2.699011,7.960612 2.101524,2.538779 5.306718,4.13531 8.607451,4.229382 2.866657,0.130458 5.754683,-0.867012 7.960612,-2.699011 2.538779,-2.101524 4.13531,-5.306718 4.229382,-8.607451 0.307833,-4.956555 -2.990828,-9.836551 -7.662074,-11.486197 -1.314107,-0.493497 -2.720657,-0.73461 -4.123263,-0.732913 z" />
      <path
         id="circle14"
         style="fill:#ffffff;fill-opacity:1;stroke:#000000;stroke-width:0.25"
         d="M 65.25,37 A 11.25,11.25 0 0 1 54,48.25 11.25,11.25 0 0 1 42.75,37 11.25,11.25 0 0 1 54,25.75 11.25,11.25 0 0 1 65.25,37 Z"
         inkscape:label="USB Port" />
      <path
         id="circle16"
         style="fill:#ffffff;fill-opacity:1;stroke:#000000;stroke-width:0.25"
         d="M 236.25,85 A 11.25,11.25 0 0 1 225,96.25 11.25,11.25 0 0 1 213.75,85 11.25,11.25 0 0 1 225,73.75 11.25,11.25 0 0 1 236.25,85 Z"
         inkscape:label="Blue X" />
      <path
         id="circle18"
         style="fill:#ffffff;fill-opacity:1;stroke:#000000;stroke-width:0.25"
         d="M 236.25,35 A 11.25,11.25 0 0 1 225,46.25 11.25,11.25 0 0 1 213.75,35 11.25,11.25 0 0 1 225,23.75 11.25,11.25 0 0 1 236.25,35 Z"
         inkscape:label="Green A" />
      <path
         id="circle20"
         style="fill:#ffffff;fill-opacity:1;stroke:#000000;stroke-width:0.25"
         d="M 286.25,85 A 11.25,11.25 0 0 1 275,96.25 11.25,11.25 0 0 1 263.75,85 11.25,11.25 0 0 1 275,73.75 11.25,11.25 0 0 1 286.25,85 Z"
         inkscape:label="Yellow Y" />
      <path
         id="circle22"
         style="fill:#ffffff;fill-opacity:1;stroke:#000000;stroke-width:0.25"
         d="M 286.25,35 A 11.25,11.25 0 0 1 275,46.25 11.25,11.25 0 0 1 263.75,35 11.25,11.25 0 0 1 275,23.75 11.25,11.25 0 0 1 286.25,35 Z"
         inkscape:label="Red B" />
      <path
         id="circle24"
         style="fill:#ffffff;fill-opacity:1;stroke:#000000;stroke-width:0.25"
         d="M 336.25,35 A 11.25,11.25 0 0 1 325,46.25 11.25,11.25 0 0 1 313.75,35 11.25,11.25 0 0 1 325,23.75 11.25,11.25 0 0 1 336.25,35 Z"
         inkscape:label="Down" />
      <path
         id="circle26"
         style="fill:#ffffff;fill-opacity:1;stroke:#000000;stroke-width:0.25"
         d="M 336.25,85 A 11.25,11.25 0 0 1 325,96.25 11.25,11.25 0 0 1 313.75,85 11.25,11.25 0 0 1 325,73.75 11.25,11.25 0 0 1 336.25,85 Z"
         inkscape:label="Up" />
    </g>
    <g
       id="g5456"
       inkscape:label="usb">
      <rect
         style="display:inline;fill:#0098db;fill-opacity:1;stroke:none;stroke-width:1.72601;stroke-linecap:round;stroke-linejoin:round;stroke-dasharray:none;stroke-opacity:0"
         id="rect5448"
         width="10.254573"
         height="1"
         x="33.031883"
         y="-37.48423"
         transform="scale(1,-1)"
         inkscape:label="connector" />
      <text
         xml:space="preserve"
         style="font-style:normal;font-variant:normal;font-weight:normal;font-stretch:normal;font-size:11.6143px;font-family:'HeavyData Nerd Font';-inkscape-font-specification:'HeavyData Nerd Font';fill:url(#linearGradient5374);fill-opacity:1;stroke:none;stroke-width:0.457257;stroke-linecap:round;stroke-linejoin:round;stroke-dasharray:none;stroke-opacity:1"
         x="26.977495"
         y="-37.067852"
         id="text5284"
         transform="scale(1,-1)"
         inkscape:label="symbol"><tspan
           sodipodi:role="line"
           id="tspan5282"
           style="fill:url(#linearGradient5374);fill-opacity:1;stroke-width:0.457257"
           x="26.977495"
           y="-37.067852">󰕓</tspan></text>
    </g>
    <g
       id="g317"
       inkscape:label="Labels"
       style="stroke-linecap:round;stroke-linejoin:round;fill:none"
       transform="translate(0)">
      <text
         xml:space="preserve"
         style="font-style:normal;font-variant:normal;font-weight:normal;font-stretch:normal;font-size:6.51527px;font-family:'HeavyData Nerd Font';-inkscape-font-specification:'HeavyData Nerd Font';fill:#00ffff;fill-opacity:1;stroke:none;stroke-width:0.256507;stroke-linecap:round;stroke-dasharray:none;stroke-opacity:1"
         x="50.691463"
         y="-111.41489"
         id="text5460"
         transform="scale(1,-1)"
         inkscape:label="rotate"><tspan
           sodipodi:role="line"
           id="tspan5458"
           style="stroke-width:0.256507"
           x="50.691463"
           y="-111.41489"></tspan></text>
      <text
         xml:space="preserve"
         style="font-style:normal;font-variant:normal;font-weight:normal;font-stretch:normal;font-size:13.3746px;font-family:'HeavyData Nerd Font';-inkscape-font-specification:'HeavyData Nerd Font';fill:#fa0545;fill-opacity:1;stroke:none;stroke-width:0.52656;stroke-linecap:round;stroke-dasharray:none;stroke-opacity:1"
         x="236.43649"
         y="-40.438515"
         id="text5789"
         transform="scale(1,-1)"
         inkscape:label="A"><tspan
           sodipodi:role="line"
           id="tspan5787"
           style="fill:#fa0545;fill-opacity:1;stroke-width:0.52656"
           x="236.43649"
           y="-40.438515">A</tspan></text>
      <text
         xml:space="preserve"
         style="font-style:normal;font-variant:normal;font-weight:normal;font-stretch:normal;font-size:13.3746px;font-family:'HeavyData Nerd Font';-inkscape-font-specification:'HeavyData Nerd Font';fill:#fa0545;fill-opacity:1;stroke:none;stroke-width:0.52656;stroke-linecap:round;stroke-linejoin:round;stroke-dasharray:none;stroke-opacity:1"
         x="256.94006"
         y="-40.436069"
         id="text5789-7"
         transform="scale(1,-1)"
         inkscape:label="B"><tspan
           sodipodi:role="line"
           id="tspan5787-0"
           style="fill:#fa0545;fill-opacity:1;stroke-width:0.52656"
           x="256.94006"
           y="-40.436069">B</tspan></text>
      <text
         xml:space="preserve"
         style="font-style:normal;font-variant:normal;font-weight:normal;font-stretch:normal;font-size:13.3746px;font-family:'HeavyData Nerd Font';-inkscape-font-specification:'HeavyData Nerd Font';fill:#fa0545;fill-opacity:1;stroke:none;stroke-width:0.52656;stroke-linecap:round;stroke-linejoin:round;stroke-dasharray:none;stroke-opacity:1"
         x="237.26646"
         y="-73.133911"
         id="text5789-7-9"
         transform="scale(1,-1)"
         inkscape:label="X"><tspan
           sodipodi:role="line"
           id="tspan5787-0-3"
           style="fill:#fa0545;fill-opacity:1;stroke-width:0.52656"
           x="237.26646"
           y="-73.133911">X</tspan></text>
      <text
         xml:space="preserve"
         style="font-style:normal;font-variant:normal;font-weight:normal;font-stretch:normal;font-size:13.3746px;font-family:'HeavyData Nerd Font';-inkscape-font-specification:'HeavyData Nerd Font';fill:#fa0545;fill-opacity:1;stroke:none;stroke-width:0.52656;stroke-linecap:round;stroke-linejoin:round;stroke-dasharray:none;stroke-opacity:1"
         x="255.97968"
         y="-73.04303"
         id="text5789-7-9-6"
         transform="scale(1,-1)"
         inkscape:label="Y"><tspan
           sodipodi:role="line"
           id="tspan5787-0-3-0"
           style="fill:#fa0545;fill-opacity:1;stroke-width:0.52656"
           x="255.97968"
           y="-73.04303">Y</tspan></text>
      <text
         xml:space="preserve"
         style="font-style:normal;font-variant:normal;font-weight:normal;font-stretch:normal;font-size:20.8176px;font-family:'HeavyData Nerd Font';-inkscape-font-specification:'HeavyData Nerd Font';fill:#fa0545;fill-opacity:1;stroke:none;stroke-width:0.819591;stroke-linecap:round;stroke-linejoin:round;stroke-dasharray:none;stroke-opacity:1"
         x="305.95615"
         y="-62.424679"
         id="text5789-7-9-6-6"
         transform="scale(1,-1)"
         inkscape:label="Up"><tspan
           sodipodi:role="line"
           id="tspan5787-0-3-0-2"
           style="fill:#fa0545;fill-opacity:1;stroke-width:0.819591"
           x="305.95615"
           y="-62.424679">󰮽</tspan></text>
      <text
         xml:space="preserve"
         style="font-style:normal;font-variant:normal;font-weight:normal;font-stretch:normal;font-size:20.8176px;font-family:'HeavyData Nerd Font';-inkscape-font-specification:'HeavyData Nerd Font';fill:#fa0545;fill-opacity:1;stroke:none;stroke-width:0.819591;stroke-linecap:round;stroke-linejoin:round;stroke-dasharray:none;stroke-opacity:1"
         x="306.05042"
         y="-43.58429"
         id="text5789-7-9-6-6-23"
         transform="scale(1,-1)"
         inkscape:label="Down"><tspan
           sodipodi:role="line"
           id="tspan5787-0-3-0-2-7"
           style="fill:#fa0545;fill-opacity:1;stroke-width:0.819591"
           x="306.05042"
           y="-43.58429">󰮷</tspan></text>
    </g>
  </g>
</svg>
