<?xml version="1.0" encoding="UTF-8"?>
<svg width="3600pt" height="3600pt" version="1.1" viewBox="0 0 3600 3600" xmlns="http://www.w3.org/2000/svg">
 <path d="m800.03 1800v199.97h-400.07v-199.97zm999.97-999.97v-400.07h-199.97v-199.97h-199.97v-199.97h-399.93l-0.14062 199.97h-199.97v199.97h-199.97v399.93h-199.97v600.05h199.97v199.97h199.97v199.97h199.97v-799.88h199.97v800.03h-199.97v600.05h199.97v-399.93h600.05v-199.97h-199.97v-199.97h199.97v-199.97h199.97v-600.05h-199.97zm-1600 1200v600.05h199.97v-600.05zm3e3 -399.93v-199.97h-199.97v-199.97h-199.97v-199.97h-199.97v199.97h-199.97v399.93h-199.97v600.05h199.97v199.97h199.97v-600.05h199.97v600.05h199.97v-199.97h199.97v-199.97h199.97v-399.93h-199.97zm-1400.1 399.93v399.93h199.97v-399.93zm-199.97 399.93v399.93h199.97v-399.93zm999.97 0v199.97h199.97v-199.97zm-399.93 199.97v199.97h399.93v-199.97zm600.05 0v199.97h399.93v-199.97zm-2400 0v399.93h199.97v-399.93zm1400.1 199.97v399.93h199.97v-199.97h199.97v-199.97zm1600 0h-199.97v199.97h199.97zm-3200.1 400.21h199.97v-199.97l-199.97-0.14063zm2800-199.97v199.97h199.97v-199.97zm-3e3 199.97v399.93h199.97v-399.93zm2199.9 199.97v-199.97h-199.97v199.97zm999.97-199.97v199.97h199.97v-199.97zm-800.03 399.93v-199.97h-199.97v199.97zm999.97-199.97v199.97h199.97v-199.97z"/>
</svg>
