<?xml version="1.0" encoding="UTF-8"?>
<svg width="3600pt" height="3600pt" version="1.1" viewBox="0 0 3600 3600" xmlns="http://www.w3.org/2000/svg">
 <path d="m2812.5 281.25h168.75v3037.5h-168.75z"/>
 <path d="m618.75 281.25h168.75v3037.5h-168.75z"/>
 <path d="m956.25 618.75h168.75v1012.5h-168.75z"/>
 <path d="m2475 618.75h168.75v1012.5h-168.75z"/>
 <path d="m787.5 3318.8h2025v168.75h-2025z"/>
 <path d="m787.5 112.5h2025v168.75h-2025z"/>
 <path d="m1125 450h1350v168.75h-1350z"/>
 <path d="m1125 1631.2h1350v168.75h-1350z"/>
 <path d="m1293.8 2137.5h168.75v168.75h-168.75z"/>
 <path d="m1125 2306.2h168.75v168.75h-168.75z"/>
 <path d="m1462.5 2306.2h168.75v168.75h-168.75z"/>
 <path d="m1293.8 2475h168.75v168.75h-168.75z"/>
 <path d="m2306.2 2137.5h168.75v168.75h-168.75z"/>
 <path d="m1968.8 2475h168.75v168.75h-168.75z"/>
 <path d="m1462.5 2925h675v168.75h-675z"/>
</svg>
