<?xml version="1.0" encoding="UTF-8"?>
<svg width="1200pt" height="1200pt" version="1.1" viewBox="0 0 1200 1200" xmlns="http://www.w3.org/2000/svg">
 <path d="m552 456h96v48h-96zm0 240h96v48h-96zm-96-144h48v96h-48zm48-48h48v48h-48zm144 0h48v48h-48zm-144 144h48v48h-48zm144 0h48v48h-48zm48-96h48v96h-48zm-192-288h48v96h-48zm144 0h48v96h-48zm-96-48h96v48h-96zm-144 96h48v48h-48zm288 48h48v48h-48zm144-48h48v48h-48zm48 48h48v48h-48zm-48 48h48v48h-48zm-480-144h48v48h-48zm-48 48h48v48h-48zm0 96h48v48h-48zm-48-48h48v48h-48zm480-48h48v48h-48zm48-48h48v48h-48zm-336 96h48v48h-48zm-240 192h48v96h-48zm48-48h96v48h-96zm0 144h96v48h-96zm720-96v96h-48v-96zm-48-48v48h-96v-48zm0 144v48h-96v-48zm-576-192h48v48h-48zm432 0h48v48h-48zm-288 480v-96h48v96zm144 0v-96h48v96zm-96 48v-48h96v48zm-144-96v-48h48v48zm288-48v-48h48v48zm144 48v-48h48v48zm48-48v-48h48v48zm-48-48v-48h48v48zm-480 144v-48h48v48zm-48-48v-48h48v48zm0-96v-48h48v48zm-48 48v-48h48v48zm480 48v-48h48v48zm48 48v-48h48v48zm-336-96v-48h48v48zm-96-96v-48h48v48zm432 0v-48h48v48z" fill-rule="evenodd"/>
</svg>
